<?xml version="1.0" encoding="UTF-8" standalone="no"?>
<!-- Generator: Gravit.io -->
<svg xmlns="http://www.w3.org/2000/svg" xmlns:xlink="http://www.w3.org/1999/xlink" style="isolation:isolate" viewBox="671.5 180.5 470.078 676" width="470.078" height="676"><defs><filter id="48ws71BjvqPyra1Qzvab5paG6UTRkkK4" x="-200%" y="-200%" width="400%" height="400%"><feOffset xmlns="http://www.w3.org/2000/svg" in="SourceAlpha" result="offOut" dx="0" dy="0"/><feGaussianBlur xmlns="http://www.w3.org/2000/svg" in="offOut" result="blurOut" stdDeviation="2.5"/><feComponentTransfer xmlns="http://www.w3.org/2000/svg" in="blurOut" result="opacOut"><feFuncA xmlns="http://www.w3.org/2000/svg" type="table" tableValues="0 0.5"/></feComponentTransfer><feBlend xmlns="http://www.w3.org/2000/svg" in="SourceGraphic" in2="opacOut" mode="normal"/></filter></defs><g filter="url(#48ws71BjvqPyra1Qzvab5paG6UTRkkK4)"><path d=" M 678 811 L 678 582.841 L 678 529.603 L 678 450.894 L 678 318.947 L 792.269 252.973 L 906.539 187 L 1020.808 252.973 L 1135.078 318.947 L 1135.078 450.894 L 1135.078 582.841 L 1020.808 648.814 L 906.539 714.788 L 792.269 648.814 L 745.654 621.901 L 745.654 621.901 L 745.654 811 L 711.827 830.5 L 678 850 L 678 811 Z  M 1067.424 543.781 L 986.981 590.224 L 906.539 636.668 L 826.096 590.224 L 745.654 543.781 L 745.654 529.603 L 745.654 450.894 L 745.654 358.007 L 826.096 311.563 L 906.539 265.12 L 986.981 311.563 L 1067.424 358.007 L 1067.424 450.894 L 1067.424 543.781 L 1067.424 543.781 Z " fill-rule="evenodd" fill="none" vector-effect="non-scaling-stroke" stroke-width="1" stroke="rgb(0,0,0)" stroke-linejoin="miter" stroke-linecap="square" stroke-miterlimit="3"/></g></svg>